<svg xmlns="http://www.w3.org/2000/svg" viewBox="0 0 440 440" width="440" height="440" role="img" aria-label="CodeAgent MCP settings: configured Model Context Protocol servers with health and toggles">
<style>
  .s{font-family:-apple-system,BlinkMacSystemFont,"Segoe UI",system-ui,sans-serif}
  .m{font-family:"JetBrains Mono",ui-monospace,SFMono-Regular,Menlo,Consolas,monospace}
  text{fill:#b8bcc2;font-size:12px}
  .pri{fill:#fff}.mut{fill:#6b737c}.sec{fill:#b0b4ba}
  .md{font-weight:500}.lt{font-weight:300;fill:#b8bcc2}
  .link{fill:#70b8ff}
  .ic{fill:none;stroke:#b8bcc2;stroke-width:1.5;stroke-linecap:round;stroke-linejoin:round}
  .ic2{fill:none;stroke:#6b737c;stroke-width:1.4;stroke-linecap:round;stroke-linejoin:round}

  @keyframes enter{from{opacity:0;transform:translateY(-5px)}to{opacity:1;transform:translateY(0)}}
  .in{animation:enter .45s cubic-bezier(.22,.7,.3,1) both}
  /* switch thumb travels track-width minus thumb over 150ms ease, as the real control does */
  @keyframes flip{from{transform:translateX(-15px)}to{transform:translateX(0)}}
  .flip{animation:flip .15s ease .7s both}
  @keyframes warn{0%,100%{opacity:1}50%{opacity:.35}}
  .warn{animation:warn 1.8s ease-in-out infinite}
  @media (prefers-reduced-motion:reduce){*{animation:none!important}}
  /* every glyph is a 16x16 box with its artwork centred, so one placement rule aligns all */
  .i{fill:none;stroke:currentColor;stroke-width:1.5;stroke-linecap:round;stroke-linejoin:round;color:#b8bcc2}
</style>
<defs>
  <g id="ico-menu"><path d="M2 4.5h12"/><path d="M2 8h12"/><path d="M2 11.5h12"/></g>
  <g id="ico-chev-r"><path d="M6 4.5 9.5 8 6 11.5"/></g>
  <g id="ico-plus"><path d="M8 2.5v11"/><path d="M2.5 8h11"/></g>
  <g id="ico-download"><path d="M8 2.4v7.4"/><path d="M4.7 7.1 8 10.4l3.3-3.3"/><path d="M2.8 13.4h10.4"/></g>
  <g id="ico-dots"><path d="M3.2 8h.01"/><path d="M8 8h.01"/><path d="M12.8 8h.01"/></g>
  <g id="sw-on"><rect width="35" height="18" rx="9" fill="#f7f9fc"/><circle cx="26" cy="9" r="8" fill="#fff"/></g>
</defs>
<rect width="440" height="440" fill="#1e1f22"/>

<!-- ══ header + breadcrumb ══ -->
<g class="s">
  <use class="i" href="#ico-menu" x="16" y="12"/>
  <text x="42" y="25" font-size="14" class="sec">Integrations</text>
  <use class="i" href="#ico-chev-r" x="120" y="12" style="color:#b0b4ba"/>
</g>

<!-- ══ title + description ══ -->
<g class="s">
  <text x="16" y="70" font-size="30" class="pri">MCP</text>
  <text x="16" y="94">Configure a new Model Context Protocol server to connect Augment</text>
  <text x="16" y="110">to custom tools. Find out more about MCP <tspan class="link" text-decoration="underline">in the docs</tspan>.</text>
</g>

<!-- ══ MCP settings: tool-search switch ══ -->
<g class="s">
  <text x="16" y="140" font-size="16" class="pri">MCP settings</text>
  <g class="in">
    <rect x="16" y="150" width="412" height="62" rx="4" fill="#313437"/>
    <text x="28" y="170" font-size="14">MCP Tool Search</text>
    <text x="28" y="188" class="mut">Enable MCP tool search that searches for available MCP</text>
    <text x="28" y="203" class="mut">tools and increases context efficiency</text>
    <rect x="378" y="171" width="35" height="20" rx="10" fill="#f7f9fc"/>
    <circle cx="404" cy="181" r="9" fill="#fff" stroke="#00000022" class="flip"/>
  </g>
</g>

<!-- ══ MCP servers ══ -->
<g class="s">
  <text x="16" y="242" font-size="16" class="pri">MCP servers</text>

  <g class="in" style="animation-delay:.15s">
    <use class="i" href="#ico-chev-r" x="20" y="252" style="color:#6b737c"/>
    <circle cx="46" cy="260" r="3" fill="#46fea5d4"/>
    <text x="58" y="264"><tspan class="md">context7</tspan> <tspan class="lt">(4) tools</tspan>  <tspan class="m mut" font-size="11">npx -y @upstash/context7-mcp</tspan></text>
    <use href="#sw-on" x="368" y="251"/>
    <use class="i" href="#ico-dots" x="406" y="252" style="stroke-width:1.7"/>
  </g>

  <g class="in" style="animation-delay:.3s">
    <use class="i" href="#ico-chev-r" x="20" y="284" style="color:#6b737c"/>
    <circle cx="46" cy="292" r="3" fill="#46fea5d4"/>
    <text x="58" y="296"><tspan class="md">playwright</tspan> <tspan class="lt">(21) tools</tspan>  <tspan class="m mut" font-size="11">npx @playwright/mcp@latest</tspan></text>
    <use href="#sw-on" x="368" y="283"/>
    <use class="i" href="#ico-dots" x="406" y="284" style="stroke-width:1.7"/>
  </g>

  <!-- amber dot: authentication required, with its inline Authenticate button -->
  <g class="in" style="animation-delay:.45s">
    <use class="i" href="#ico-chev-r" x="20" y="316" style="color:#6b737c"/>
    <circle cx="46" cy="324" r="3" fill="#ffca16" class="warn"/>
    <text x="58" y="328"><tspan class="md">linear</tspan> <tspan class="lt">(8) tools</tspan></text>
    <rect x="278" y="317" width="76" height="15" rx="3" fill="#4a3a10"/>
    <text x="316" y="328" font-size="10" fill="#ffca16" class="md" text-anchor="middle">Authenticate</text>
    <use href="#sw-on" x="368" y="315"/>
    <use class="i" href="#ico-dots" x="406" y="316" style="stroke-width:1.7"/>
  </g>

  <!-- disabled server: hollow ringed dot, switch off -->
  <g class="in" style="animation-delay:.6s">
    <circle cx="46" cy="356" r="3" fill="none" stroke="#b8bcc2"/>
    <text x="58" y="360" fill="#6b737c"><tspan class="md">figma</tspan>  <tspan class="m" font-size="11">http://127.0.0.1:3845/mcp</tspan></text>
    <rect x="368" y="347" width="35" height="18" rx="9" fill="#444950"/>
    <circle cx="377" cy="356" r="8" fill="#fff"/>
    <use class="i" href="#ico-dots" x="406" y="348" style="stroke-width:1.7;color:#6b737c"/>
  </g>
</g>

<!-- ══ add / import buttons ══ -->
<g class="s">
  <g class="in" style="animation-delay:.75s">
    <rect x="16" y="380" width="202" height="22" rx="3" fill="#393c40"/>
    <use class="i" href="#ico-plus" x="86" y="383"/>
    <text x="108" y="395" class="md">Add MCP</text>

    <rect x="226" y="380" width="202" height="22" rx="3" fill="#393c40"/>
    <use class="i" href="#ico-plus" x="272" y="383"/>
    <text x="294" y="395" class="md">Add remote MCP</text>

    <rect x="16" y="408" width="202" height="22" rx="3" fill="#393c40"/>
    <use class="i" href="#ico-download" x="70" y="411"/>
    <text x="92" y="423" class="md">Import from JSON</text>
  </g>
</g>
</svg>
